<!DOCTYPE svg PUBLIC "-//W3C//DTD SVG 1.1//EN"
  "http://www.w3.org/Graphics/SVG/1.1/DTD/svg11.dtd">
  <svg xmlns="http://www.w3.org/2000/svg" width="320" height="320">
    <path class="light_bg_blue" id="box_bg" fill="#BEE2FA" d="M20 20h280v280H20z"/>
    <path class="logo_blue" id="upper_border" fill="#61A8E1" d="M20 0h280v20H20zM0 20h20v280H0z"/>
    <path class="shadow_blue" id="lower_border" fill="#1B4D68" d="M320 19.927v300H0v-20L300 300l-.001-280.073z"/>
    <path class="shadow_blue" id="shadow_bolts" fill="#1B4D68" d="M40 40h20v20H40zm0 220h20v20H40zM260 40h20v20h-20zm0 220h20v20h-20zm-40-140.073V80.302H120v39.625h-20v139.625h40v-59.625h60v59.625h40V119.927h-20zm-20 60h-60v-60h60v60z"/>
    <path class="logo_blue" id="foreground_a" fill="#61A8E1" d="M200 100V60.375H100V100H80v139.625h40V180h60v59.625h40V100h-20zm-20 60h-60v-60h60v60z"/>
  </svg>