<?xml version="1.0" encoding="utf-8"?>
<!-- Generator: Adobe Illustrator 16.0.0, SVG Export Plug-In . SVG Version: 6.00 Build 0)  -->
<!DOCTYPE svg PUBLIC "-//W3C//DTD SVG 1.1//EN" "http://www.w3.org/Graphics/SVG/1.1/DTD/svg11.dtd">
<svg version="1.1" xmlns="http://www.w3.org/2000/svg" xmlns:xlink="http://www.w3.org/1999/xlink" x="0px" y="0px" width="320px"
	 height="320px" viewBox="0 0 320 320" enable-background="new 0 0 320 320" xml:space="preserve">
<g id="block_border_x2B_BG">
	<g>
		<g>
			<g>
				<rect x="20" y="20" fill="#BEE2FA" width="280" height="280"/>
			</g>
		</g>
		<g>
			<g>
				<g>
					<rect y="300" fill="#1B4D68" width="320" height="20"/>
				</g>
			</g>
			<g>
				<g>
					<rect x="20" fill="#61A8E1" width="280" height="20"/>
				</g>
			</g>
			<g>
				<g>
					<rect y="20" fill="#61A8E1" width="20" height="280"/>
				</g>
			</g>
			<g>
				<g>
					<rect x="300" y="20" fill="#1B4D68" width="20" height="280"/>
				</g>
			</g>
		</g>
	</g>
</g>
<g id="bolts">
	<g>
		<g>
			<rect x="40" y="40" fill="#1B4D68" width="20" height="20"/>
		</g>
	</g>
	<g>
		<g>
			<rect x="40" y="260" fill="#1B4D68" width="20" height="20"/>
		</g>
	</g>
	<g>
		<g>
			<rect x="260" y="40" fill="#1B4D68" width="20" height="20"/>
		</g>
	</g>
	<g>
		<g>
			<rect x="260" y="260" fill="#1B4D68" width="20" height="20"/>
		</g>
	</g>
</g>
<g id="new_A_obj">
	<g>
		<g>
			<g>
				<path fill="#1B4D68" d="M220,119.927V80.302H120v39.625h-20v139.625h40v-59.625h60v59.625h40V119.927H220z M200,179.927h-60v-60
					h60V179.927z"/>
			</g>
		</g>
		<g>
			<g>
				<path fill="#61A8E1" d="M200,100V60.375H100V100H80v139.625h40V180h60v59.625h40V100H200z M180,160h-60v-60h60V160z"/>
			</g>
		</g>
	</g>
</g>
</svg>
