<svg xmlns="http://www.w3.org/2000/svg" width="320" height="320"><path fill="#BEE2FA" d="M20 20h280v280H20z"/><path fill="#1B4D68" d="M0 300h320v20H0z"/><path fill="#61A8E1" d="M20 0h280v20H20zM0 20h20v280H0z"/><path fill="#1B4D68" d="M300 20h20v280h-20zM40 40h20v20H40zm0 220h20v20H40zM260 40h20v20h-20zm0 220h20v20h-20zm-40-140.073V80.302H120v39.625h-20v139.625h40v-59.625h60v59.625h40V119.927h-20zm-20 60h-60v-60h60v60z"/><path fill="#61A8E1" d="M200 100V60.375H100V100H80v139.625h40V180h60v59.625h40V100h-20zm-20 60h-60v-60h60v60z"/></svg>